# xmcd
#
# Track frame offsets:
#	150
#	17360
#	34349
#	50792
#	81329
#	110807
#	133376
#	167489
#	206996
#
# Disc length: 3192 seconds
#
# Revision: 1
# Processed by: cddbd v1.5.2PL0 Copyright (c) Steve Scherf et al.
# Submitted via: audiograbber 1.83.01
#
DISCID=840c7609
DTITLE=DJ Thoka vs DJ Taylor and Flow - You Make Me Feel So Good (The Remixes) CD
DTITLE=M
DYEAR=2002
DGENRE=Trance
TTITLE0=You Make Me Feel So Good (Taylor and Flow Short Edit)
TTITLE1=You Make Me Feel So Good (Arrowhead Short Mix)
TTITLE2=You Make Me Feel So Good (Reworked Single Edit)
TTITLE3=You Make Me Feel So Good (Taylor and Flow Extended Mix)
TTITLE4=You Make Me Feel So Good (Arrowhead Extended Mix)
TTITLE5=You Make Me Feel So Good (Kosmonova's Hard-Experience Remix)
TTITLE6=You Make Me Feel So Good (Thoka vs. F-Starr Remix)
TTITLE7=You Make Me Feel So Good (Frank Starr Remix)
TTITLE8=You Make Me Feel So Good (Reworked Extended Mix)
EXTD=
EXTT0=
EXTT1=
EXTT2=
EXTT3=
EXTT4=
EXTT5=
EXTT6=
EXTT7=
EXTT8=
PLAYORDER=
